<svg version="1.1" id="Layer_1" xmlns="http://www.w3.org/2000/svg" xmlns:xlink="http://www.w3.org/1999/xlink" x="0px" y="0px"
	 width="100%" viewBox="0 0 496 496" enable-background="new 0 0 496 496" xml:space="preserve">
<path fill="#000000" opacity="1.000000" stroke="none" 
	d="
M283.337738,234.083542 
	C281.497650,236.041565 281.166290,237.485703 283.099335,239.413177 
	C287.501495,243.802658 290.023560,248.764862 286.832947,255.098862 
	C283.431305,261.851746 278.562836,266.271362 270.521515,266.119690 
	C266.860809,266.050629 263.197998,266.096558 259.536133,266.085938 
	C255.866516,266.075287 253.949203,264.214569 253.941742,260.562469 
	C253.910751,245.415680 253.906342,230.268753 253.937057,215.121964 
	C253.941589,212.891617 254.429291,210.817108 256.801300,209.763321 
	C263.762054,206.670883 277.455292,209.620041 282.240692,215.266785 
	C287.719574,221.731827 288.047089,226.409714 283.337738,234.083542 
M276.223694,244.359329 
	C272.967712,240.663666 268.365601,240.869553 264.741882,242.207809 
	C261.831451,243.282684 264.402618,247.297745 263.965332,249.974030 
	C263.728699,251.421982 263.946625,252.952393 264.030548,254.441605 
	C264.086212,255.429825 264.167023,256.760742 265.328400,256.843109 
	C269.064667,257.108154 272.989868,258.010040 276.040009,254.684372 
	C278.882782,251.584747 279.537598,248.372574 276.223694,244.359329 
M266.790527,217.458145 
	C264.481873,217.392227 263.409241,218.464310 263.595947,220.813263 
	C263.754211,222.804123 263.742371,224.810471 263.949646,226.794952 
	C264.175537,228.957581 263.049957,231.929611 266.230682,232.670303 
	C269.354309,233.397690 272.611755,233.379913 274.895294,230.417801 
	C276.559174,228.259476 278.017181,225.980927 276.662231,223.101807 
	C274.859711,219.271530 271.948761,217.156708 266.790527,217.458145 
z"/>
<path fill="#000000" opacity="1.000000" stroke="none" 
	d="
M219.732773,224.011505 
	C219.735611,220.352386 219.840973,217.186295 219.714355,214.029495 
	C219.574448,210.541687 221.377930,209.239578 224.573776,209.225677 
	C227.755356,209.211823 229.457626,210.427048 229.425735,213.965744 
	C229.316315,226.113342 229.384659,238.262680 229.411316,250.411301 
	C229.424774,256.544922 229.801163,256.899261 235.901794,256.970947 
	C238.397461,257.000275 240.895416,256.973633 243.388184,257.074860 
	C246.171799,257.187866 247.662125,258.747223 247.771332,261.502380 
	C247.883652,264.336151 246.395142,265.958527 243.602203,266.003265 
	C237.447525,266.101776 231.279572,266.257202 225.137726,265.960693 
	C221.016342,265.761688 219.715256,262.772247 219.728577,258.957733 
	C219.768677,247.474823 219.736801,235.991684 219.732773,224.011505 
z"/>
</svg>